<svg xmlns="http://www.w3.org/2000/svg" width="256" height="256"><path fill="#1976D2" fill-opacity=".118" fill-rule="evenodd" d="M0 128.004v128.004l128.25-.254 128.25-.254.254-127.75L257.008 0H0v128.004m.485.496c0 70.4.119 99.053.265 63.672.146-35.38.146-92.98 0-128C.604 29.153.485 58.1.485 128.5"/><path fill="#1976D2" fill-opacity=".182" fill-rule="evenodd" d="M80 8v8H48v16H32v16H16v32H0v96h16v32h16v16h16v16h32v16h96v-16h32v-16h16v-16h16v-31.919l8.25-.291 8.25-.29.262-48 .262-48-8.512.323-8.512.324V48h-16V32h-16V16h-32V0H80v8m0 32v8H48v32H32v96h16v32h32v16h96v-15.949l15.75-.276 15.75-.275.275-15.75.276-15.75H224V80h-15.949l-.276-15.75-.275-15.75-15.75-.275-15.75-.276V32H80v8m15.792 15.75L95.5 63.5l-15.725.275-15.724.276-.276 15.724L63.5 95.5l-7.75.292-7.75.292v63.832l7.75.292 7.75.292.275 15.75.276 15.75H96v16h64v-16h32v-32h16V96h-16V64.051l-15.75-.276-15.75-.275-.292-7.75-.292-7.75H96.084l-.292 7.75M.463 128c0 26.675.129 37.588.286 24.25.158-13.338.158-35.162 0-48.5C.592 90.412.463 101.325.463 128M144 88v8h-32v16H96v32H80v32h16v16h64v-16h16v-16h16V96h-16V80h-32v8"/><path fill="#1976D2" fill-opacity=".304" fill-rule="evenodd" d="M80 8v8H48v16H32v16H16v32H0v96h16v32h16v16h16v16h32v16h96v-16h32v-16h16v-16h16v-31.919l8.25-.291 8.25-.29.262-48 .262-48-8.512.323-8.512.324V48h-16V32h-16V16h-32V0H80v8m0 16v8H48v16H32v32H16v96h16v32h16v16h32v16h96v-32h32v-32h16V80h-16V48h-32V16H80v8m16 32v8H64v32H48v64h16v32h32v-16H80v-16H64V96h16V80h16V64h64v16h16v16h16V64h-32V48H96v8M.463 128c0 26.675.129 37.588.286 24.25.158-13.338.158-35.162 0-48.5C.592 90.412.463 101.325.463 128"/><path fill="#1976D2" fill-opacity=".984" fill-rule="evenodd" d="M80 8v8H48v16H32v16H16v32H0v96h16v32h16v16h16v16h32v16h96v-16h32v-16h16v-16h16v-31.919l8.25-.291 8.25-.29.262-48 .262-48-8.512.323-8.512.324V48h-16V32h-16V16h-32V0H80v8m0 16v8H48v16H32v32H16v96h16v32h16v16h32v16h96v-16h32v-16h16v-32h16V80h-16V48h-16V32h-32V16H80v8M.463 128c0 26.675.129 37.588.286 24.25.158-13.338.158-35.162 0-48.5C.592 90.412.463 101.325.463 128"/></svg>